<svg width="16" height="16" viewBox="0 0 16 16" fill="none" xmlns="http://www.w3.org/2000/svg">
<path d="M7.3011 1.01006C5.46202 1.2074 3.79561 2.0872 2.62255 3.48501C1.79757 4.46621 1.28504 5.57898 1.05756 6.8836C1.00548 7.18234 1 7.32761 1 8.00732C1 8.68704 1.00548 8.8323 1.05756 9.13105C1.31519 10.6111 1.93461 11.8362 2.95693 12.8969C4.00666 13.9877 5.33046 14.6784 6.87627 14.9498C7.17502 15.0018 7.32028 15.0073 8 15.0073C8.85787 15.0073 9.11551 14.9799 9.78974 14.8072C12.2071 14.1823 14.175 12.2145 14.7999 9.79707C14.9726 9.12283 15 8.86519 15 8.00732C15 7.14945 14.9726 6.89182 14.7999 6.21758C14.175 3.80294 12.2071 1.8323 9.78974 1.2074C9.16758 1.04844 8.87431 1.0128 8.10963 1.00458C7.72592 0.999101 7.36139 1.00184 7.3011 1.01006ZM8.45223 1.71445C9.81989 1.77749 11.2698 2.41883 12.3414 3.43293C14.5642 5.53786 14.9561 8.95564 13.2596 11.4881C11.1848 14.5852 6.96946 15.2513 4.06695 12.9408C1.57831 10.9564 0.953406 7.40435 2.62255 4.7074C3.71065 2.94781 5.6018 1.81312 7.62999 1.70623C7.82733 1.69526 8.02467 1.68978 8.06852 1.69526C8.11511 1.698 8.28778 1.70623 8.45223 1.71445Z" fill="#111111"/>
<path d="M7.68611 2.94493C7.38737 3.04634 7.13521 3.25738 7.02284 3.50405C6.71313 4.18103 7.09136 4.91556 7.82041 5.04986C8.16301 5.1129 8.53302 4.98134 8.78243 4.71274C8.98799 4.49074 9.05377 4.31259 9.05651 3.97821C9.05651 3.7425 9.04829 3.70139 8.96881 3.5342C8.85917 3.29849 8.67828 3.12034 8.44531 3.01071C8.29457 2.93945 8.22331 2.923 8.02871 2.91752C7.88619 2.91204 7.75189 2.923 7.68611 2.94493Z" fill="#111111"/>
<path d="M6.47245 5.73787C6.42585 5.78446 6.42585 6.74922 6.47245 6.79582C6.49437 6.81774 6.65334 6.82871 7.0069 6.82871H7.50847V9.29542V11.7621H6.98772H6.46696V12.2966V12.8311L8.243 12.8256L10.0163 12.8174V12.2966V11.7758L9.47636 11.7676L8.93368 11.7621L8.9282 8.73904L8.91998 5.71868L7.71403 5.71046C6.79586 5.70498 6.49711 5.7132 6.47245 5.73787Z" fill="#111111"/>
</svg>
