<svg width="42" height="43" viewBox="0 0 42 43" fill="none" xmlns="http://www.w3.org/2000/svg">
<rect y="0.723633" width="42" height="42" rx="21" fill="white" fill-opacity="0.1"/>
<path d="M30.3333 9.72363C31.0406 9.72363 31.7189 10.0046 32.219 10.5047C32.719 11.0048 33 11.6831 33 12.3903V31.057C33 31.7642 32.719 32.4425 32.219 32.9426C31.7189 33.4427 31.0406 33.7236 30.3333 33.7236H11.6667C10.9594 33.7236 10.2811 33.4427 9.78105 32.9426C9.28095 32.4425 9 31.7642 9 31.057V12.3903C9 11.6831 9.28095 11.0048 9.78105 10.5047C10.2811 10.0046 10.9594 9.72363 11.6667 9.72363H30.3333ZM29.6667 30.3903V23.3236C29.6667 22.1708 29.2087 21.0652 28.3936 20.2501C27.5784 19.4349 26.4728 18.977 25.32 18.977C24.1867 18.977 22.8667 19.6703 22.2267 20.7103V19.2303H18.5067V30.3903H22.2267V23.817C22.2267 22.7903 23.0533 21.9503 24.08 21.9503C24.5751 21.9503 25.0499 22.147 25.3999 22.497C25.75 22.8471 25.9467 23.3219 25.9467 23.817V30.3903H29.6667ZM14.1733 17.137C14.7674 17.137 15.3372 16.901 15.7573 16.4809C16.1773 16.0608 16.4133 15.4911 16.4133 14.897C16.4133 13.657 15.4133 12.6436 14.1733 12.6436C13.5757 12.6436 13.0026 12.881 12.58 13.3036C12.1574 13.7262 11.92 14.2993 11.92 14.897C11.92 16.137 12.9333 17.137 14.1733 17.137ZM16.0267 30.3903V19.2303H12.3333V30.3903H16.0267Z" fill="white"/>
</svg>
