<svg width="236" height="54" viewBox="0 0 236 54" fill="none" xmlns="http://www.w3.org/2000/svg">
<g clipPath="url(#clip0_5401_1310)">
<path d="M77.7744 24.64C77.7744 30.8304 73.5073 34.4196 67.4823 34.4196H62.2086V43.0852H55.3047V14.9814H67.4774C73.5073 14.9814 77.7744 18.4448 77.7744 24.64ZM70.7428 24.7611C70.7428 22.654 69.6134 21.54 67.227 21.54H62.2086V27.9774H67.227C69.6134 27.9822 70.7428 26.8681 70.7428 24.7611Z" fill="white"/>
<path d="M102.75 32.1924C102.75 38.8768 97.604 43.832 91.0781 43.832C84.5523 43.832 79.4062 38.8768 79.4062 32.1924C79.4062 25.5079 84.6799 20.5527 91.0781 20.5527C97.604 20.5527 102.75 25.5031 102.75 32.1924ZM86.4379 32.1924C86.4379 35.2876 88.5739 37.2687 91.2058 37.2687C93.8426 37.2687 95.9737 35.2876 95.9737 32.1924C95.9737 29.0972 93.9654 27.1161 91.2058 27.1161C88.4462 27.1161 86.4379 29.0972 86.4379 32.1924Z" fill="white"/>
<path d="M140.911 29.3442V43.212H134.007V30.9524C134.007 28.5983 133.255 27.1161 130.618 27.1161C128.109 27.1161 126.73 28.4772 126.73 31.4513V43.212H119.826V30.9524C119.826 28.5983 119.074 27.1161 116.437 27.1161C113.928 27.1161 112.548 28.4772 112.548 31.4513V43.212H105.645V21.0468H112.548V23.522C114.179 21.5409 116.187 20.5527 118.952 20.5527C121.962 20.5527 124.348 21.9138 125.605 24.389C127.363 21.9138 129.872 20.5527 133.01 20.5527C137.773 20.5527 140.911 24.0209 140.911 29.3442Z" fill="white"/>
<path d="M166.891 33.5535H150.574C150.952 37.0216 153.083 38.3827 155.469 38.3827C157.35 38.3827 158.857 37.5157 159.358 35.9075H166.513C165.005 41.3568 160.237 43.7061 155.469 43.7061C148.315 43.7061 143.547 38.6298 143.547 32.0664C143.547 25.5031 148.442 20.4268 155.346 20.4268C162.746 20.5527 167.519 26.249 166.891 33.5535ZM150.696 29.4653H159.609C159.108 27.3582 157.728 25.876 155.214 25.876C152.7 25.876 151.325 27.3631 150.696 29.4653Z" fill="white"/>
<path d="M187.476 41.7241C186.218 42.5911 183.336 43.7052 180.449 43.7052C176.182 43.7052 171.915 41.23 171.915 34.6667V27.6092H168.148V21.0459H171.915V16.4685L178.819 14.9814V21.0459H186.351V27.4833H178.819V34.1677C178.819 36.2748 179.948 37.2629 181.706 37.2629C182.963 37.2629 184.343 36.7689 186.351 36.1489L187.476 41.7241Z" fill="white"/>
<path d="M205.671 20.6787V27.7361C205.17 27.7361 204.792 27.6102 204.291 27.6102C201.026 27.6102 197.888 28.5983 197.888 33.5535V43.0861H190.984V21.0468H197.888V24.515C199.268 21.7927 201.527 20.5527 204.414 20.5527C204.792 20.5527 205.17 20.5527 205.671 20.6787Z" fill="white"/>
<path d="M232.281 21.0459L217.973 53.2378H210.568L216.342 40.1159L208.059 21.0459H215.463L220.231 32.5596L224.999 21.0459H232.281Z" fill="white"/>
<path d="M25.1094 7.74976L27.5007 4.83379L25.1094 1.05078V7.74976Z" fill="#394546"/>
<path d="M21.6992 5.28914L25.1021 7.74979V1.05566L21.6992 5.28914Z" fill="#AC4900"/>
<path d="M24.8625 20.4121L23.5269 32.8413L16.4609 20.4218L24.8625 20.4121Z" fill="#F3576E"/>
<path d="M24.8625 20.4117L16.4609 20.4214L25.108 7.75L24.8625 20.4117Z" fill="#FD455E"/>
<path d="M16.461 20.4214L8.60938 21.4386L17.4578 7.75L16.461 20.4214Z" fill="#E0798D"/>
<path d="M20.4629 7.75L16.4609 20.4214L17.4577 7.75H20.4629Z" fill="#E31930"/>
<path d="M25.108 7.75L16.4609 20.4214L20.4629 7.75H25.108Z" fill="#9D4252"/>
<path d="M42.0659 18.1738L46.0826 32.7779L38.8398 18.7938L42.0659 18.1738Z" fill="#F9C1BE"/>
<path d="M42.1109 32.7919L42.0078 44.2426L46.0834 32.7773L42.1109 32.7919Z" fill="#F9C1BE"/>
<path d="M42.6839 26.2197L42.1094 32.7928L46.0818 32.7782L42.6839 26.2197Z" fill="#FCC7C2"/>
<path d="M32.2185 9.90535L38.8426 18.7937L25.2852 9.67285L32.2185 9.90535Z" fill="#E7C7CC"/>
<path d="M42.0087 44.2437L34.5352 51.3399L42.1118 32.793L42.0087 44.2437Z" fill="#FCC7C2"/>
<path d="M25.2852 9.67285L38.8426 18.7937L25.2852 14.5893V9.67285Z" fill="#F6DDDA"/>
<path d="M25.2837 14.5898L38.8411 18.7943L25.0234 20.4121L25.2837 14.5898Z" fill="#DBE9E5"/>
<path d="M30.171 21.5404L38.8427 18.7939L23.5273 32.841L30.171 21.5404Z" fill="#FFEBED"/>
<path d="M25.0234 20.4118L38.8411 18.7939L30.1744 21.5355L25.0234 20.4118Z" fill="#EAF2EC"/>
<path d="M42.113 32.7928L42.6875 26.2246L23.5273 32.8412L42.113 32.7928Z" fill="#FFEBED"/>
<path d="M38.8427 18.7939L42.6875 26.2195L23.5273 32.841L38.8427 18.7939Z" fill="#FFF1E5"/>
<path d="M28.2218 51.426L34.5365 51.3389L27.5 45.2744L28.2218 51.426Z" fill="#F4D2C2"/>
<path d="M33.1027 50.1096L42.1132 32.793L27.5 45.2754L33.1027 50.1096Z" fill="#F5E0D4"/>
<path d="M30.6915 32.8844L23.5273 32.8408L27.4998 45.2749L30.6915 32.8844Z" fill="#FCFCFA"/>
<path d="M42.1132 32.793L30.6917 32.8898L27.5 45.2754L42.1132 32.793Z" fill="#FFF1E5"/>
<path d="M42.6875 26.2197L42.113 32.7928L23.5273 32.8412L42.6875 26.2197Z" fill="#F2F6F5"/>
<path d="M25.025 20.4121L30.171 21.5407L23.5273 32.8413L25.025 20.4121Z" fill="#F1F2E7"/>
<path d="M41.6319 18.2608L38.8428 18.7936L32.2188 9.90527L41.6319 18.2608Z" fill="#FCC7C2"/>
<path d="M34.5354 51.3399L33.1016 50.1096L42.112 32.793L34.5354 51.3399Z" fill="#F6DDDA"/>
<path d="M16.461 20.4219L9.58653 32.8414L8.60938 21.4342L16.461 20.4219Z" fill="#E00D2D"/>
<path d="M16.5543 45.2749L8.60938 44.4175L9.58653 32.8408L16.5543 45.2749Z" fill="#C81328"/>
<path d="M16.5543 45.2753L13.1613 51.9404L8.60938 44.418L16.5543 45.2753Z" fill="#A40017"/>
<path d="M9.58576 32.8408L8.6086 44.4175L0.0351562 32.8844L9.58576 32.8408Z" fill="#BC0B2A"/>
<path d="M8.6086 44.4179L4.53302 43.9722L0.0351562 32.8848L8.6086 44.4179Z" fill="#BB0013"/>
<path d="M8.61074 44.4173L13.1577 51.9397L4.53516 43.9717L8.61074 44.4173Z" fill="#8E0319"/>
<path d="M27.4998 45.2744L28.2904 51.9976L16.5547 45.2744H27.4998Z" fill="#931925"/>
<path d="M16.5532 45.2744L28.2889 51.9976L13.1602 51.9395L16.5532 45.2744Z" fill="#7F0016"/>
<path d="M9.58576 32.8407L0.0351562 32.8843L8.6086 21.4336L9.58576 32.8407Z" fill="#EF1034"/>
<path d="M8.6086 21.4393L0.0351562 32.8852L4.51829 18.0195L8.6086 21.4393Z" fill="#F42848"/>
<path d="M17.4583 7.75L8.60984 21.4386L4.51953 18.0189L17.4583 7.75Z" fill="#FD455E"/>
<path d="M15.2773 0.663086L25.1078 7.74957H17.4575L15.2773 0.663086Z" fill="#9D2035"/>
<path d="M15.3359 0.857422L20.4623 7.75015H17.4572L15.3359 0.857422Z" fill="#90102A"/>
<path d="M31.4732 0L30.6924 7.75008H25.1094L31.4732 0Z" fill="#AC4900"/>
<path d="M30.0639 2.89648L30.6384 7.35762L25.1094 7.74513L30.0639 2.89648Z" fill="#F4E1C8"/>
<path d="M21.6992 5.28914L25.1021 7.74979L26.1578 1.05566L21.6992 5.28914Z" fill="#E0AA7B"/>
<path d="M25.1094 7.74976L27.5007 4.83379L26.1651 1.05078L25.1094 7.74976Z" fill="#B74622"/>
<path d="M27.4998 45.2749H16.5547L23.5274 32.8457L27.4998 45.2749Z" fill="#AE0019"/>
<path d="M16.5537 45.2749L9.58594 32.8408H23.5264L16.5537 45.2749Z" fill="#BE0D1A"/>
<path d="M23.5264 32.8413H9.58594L16.4604 20.417L23.5264 32.8413Z" fill="#E31930"/>
<path d="M41.631 18.2618L42.4559 18.0196L30.6367 7.3584L32.2178 9.90624L41.631 18.2618Z" fill="#8B5D58"/>
<path d="M46.0816 32.7786H46.9311L42.4577 18.0195L41.6328 18.2617L46.0816 32.7786Z" fill="#5C1F23"/>
<path d="M42.0078 44.2426L42.8033 44.417L46.9329 32.7773H46.0834L42.0078 44.2426Z" fill="#6C2F30"/>
<path d="M34.5352 51.3393L34.707 51.9981L42.8091 44.4175L42.0136 44.2432L34.5352 51.3393Z" fill="#612B35"/>
<path d="M28.2227 51.4261L28.2914 51.9976H34.7092L34.5373 51.3389L28.2227 51.4261Z" fill="#742932"/>
<path d="M25.1094 7.74981L30.6384 7.3623L25.2861 9.6728L25.1094 7.74981Z" fill="#F6CFA5"/>
<path d="M30.6374 7.3584L32.2185 9.90624L25.2852 9.67373L30.6374 7.3584Z" fill="#F4BCB7"/>
<path d="M24.8633 20.4117H25.0253L25.2856 9.67299L25.1088 7.75L24.8633 20.4117Z" fill="#B45651"/>
<path d="M23.5273 32.8413L23.6747 32.8558L25.025 20.4121H24.863L23.5273 32.8413Z" fill="#8B5D58"/>
<path d="M27.4311 45.2749L27.6029 45.1877L23.6747 32.8602L23.5273 32.8457L27.4311 45.2749Z" fill="#6C2F30"/>
<path d="M28.1275 51.4263H28.2257L27.607 45.1875L27.5039 45.2747L28.1275 51.4263Z" fill="#612B35"/>
<path d="M29.8828 24.3937L33.1089 18.707" stroke="#AE0019" strokeWidth="0.0452978" stroke-miterlimit="10"/>
<path d="M29.8828 24.3936L32.8585 30.2158" stroke="#E31930" strokeWidth="0.0452978" stroke-miterlimit="10"/>
<path d="M36.2781 24.4854L32.8359 30.264" stroke="#F3576E" strokeWidth="0.0452978" stroke-miterlimit="10"/>
<path d="M32.8608 30.2158L29.9883 35.2292" stroke="#AE0019" strokeWidth="0.0452978" stroke-miterlimit="10"/>
<path d="M29.9453 35.1611L34.6249 41.8795" stroke="#E31930" strokeWidth="0.0452978" stroke-miterlimit="10"/>
<path d="M34.6238 17.787L33.1114 18.7073H33.1016V16.9345V16.9248L34.6238 17.7725V17.787Z" fill="#F3576E"/>
<path d="M34.6238 19.554L33.1016 18.7112L34.6287 17.7764L34.6238 19.554Z" fill="#E5263F"/>
<path d="M34.6248 19.5538L33.0977 20.4838L33.1026 18.7109L34.6248 19.5538Z" fill="#C30015"/>
<path d="M33.0983 20.4838L31.5859 19.6409L33.1081 18.7109L33.0983 20.4838Z" fill="#AE0019"/>
<path d="M31.5859 19.6419L31.5958 17.8643L33.1081 18.7071L31.5859 19.6419Z" fill="#C40014"/>
<path d="M33.1022 18.7161L31.5898 17.8684L33.1022 16.9336V18.7161Z" fill="#E31930"/>
<path d="M28.2891 25.1734L29.8849 24.3887H29.8898L29.7278 26.1518V26.1615L28.2891 25.1831V25.1734Z" fill="#F3576E"/>
<path d="M28.4511 23.4102L29.8898 24.3886L28.2891 25.1781L28.4511 23.4102Z" fill="#E5263F"/>
<path d="M28.4531 23.4097L30.0637 22.6201L29.8919 24.3929L28.4531 23.4097Z" fill="#C30015"/>
<path d="M30.0615 22.6201L31.4953 23.5937L29.8945 24.3929L30.0615 22.6201Z" fill="#AE0019"/>
<path d="M31.4885 23.5938L31.3166 25.3666L29.8828 24.393L31.4885 23.5938Z" fill="#C40014"/>
<path d="M29.8925 24.3936L31.3263 25.3672L29.7305 26.1664L29.8925 24.3936Z" fill="#E31930"/>
<path d="M34.4423 29.1647L32.9004 30.0512H32.8906L32.9348 28.2783H32.9446L34.4423 29.1551V29.1647Z" fill="#F3576E"/>
<path d="M34.3883 30.933L32.8906 30.0563L34.4423 29.165L34.3883 30.933Z" fill="#E5263F"/>
<path d="M34.3876 30.9324L32.8359 31.8236L32.8899 30.0508L34.3876 30.9324Z" fill="#C30015"/>
<path d="M32.8365 31.8236L31.3438 30.9372L32.8856 30.0508L32.8365 31.8236Z" fill="#AE0019"/>
<path d="M31.3438 30.9418L31.3978 29.1689L32.8905 30.0457L31.3438 30.9418Z" fill="#C40014"/>
<path d="M32.8912 30.0559L31.3984 29.1695L32.9354 28.2686L32.8912 30.0559Z" fill="#E31930"/>
<path d="M34.6211 25.5416L36.1629 24.6504V24.6601L36.1187 26.4329L34.6211 25.5416Z" fill="#F3576E"/>
<path d="M34.68 23.7686L36.1728 24.6453L34.6211 25.5414L34.68 23.7686Z" fill="#E5263F"/>
<path d="M34.6797 23.7682L36.2314 22.877L36.1724 24.6498L34.6797 23.7682Z" fill="#C30015"/>
<path d="M36.223 22.877L37.7157 23.7537L36.1641 24.6449L36.223 22.877Z" fill="#AE0019"/>
<path d="M37.7157 23.7539L37.6617 25.5316L36.1641 24.6549L37.7157 23.7539Z" fill="#C40014"/>
<path d="M36.1653 24.6504L37.6629 25.5368L36.1211 26.4281L36.1653 24.6504Z" fill="#E31930"/>
<path d="M28.4805 36.1877L29.9879 35.2383L30.0272 37.0111L30.0174 37.0208L28.4805 36.1877Z" fill="#F3576E"/>
<path d="M28.457 34.4102L29.9841 35.2384L28.4816 36.1878L28.457 34.4102Z" fill="#E5263F"/>
<path d="M28.457 34.4103L29.9694 33.4609L29.9841 35.2386L28.457 34.4103Z" fill="#C30015"/>
<path d="M29.9766 33.4561L31.5037 34.2747L29.9913 35.2337L29.9766 33.4561Z" fill="#AE0019"/>
<path d="M31.5007 34.2754L31.5252 36.0482L29.9883 35.2345L31.5007 34.2754Z" fill="#C40014"/>
<path d="M29.9883 35.2334L31.5252 36.0472L30.0276 37.0111L29.9883 35.2334Z" fill="#E31930"/>
<path d="M36.0312 40.8765L34.5631 41.8695H34.5532L34.4648 40.0967L36.0312 40.8668V40.8765Z" fill="#F3576E"/>
<path d="M36.1152 42.6449L34.5586 41.8747L36.0366 40.8672L36.1152 42.6449Z" fill="#E5263F"/>
<path d="M36.1162 42.6452L34.6382 43.6478L34.5547 41.875L36.1162 42.6452Z" fill="#C30015"/>
<path d="M34.6386 43.6478L33.082 42.8777L34.56 41.875L34.6386 43.6478Z" fill="#AE0019"/>
<path d="M33.0835 42.8822L33 41.1143L34.5566 41.8747L33.0835 42.8822Z" fill="#C40014"/>
<path d="M34.5615 41.8792L33 41.1091L34.4682 40.1016L34.5615 41.8792Z" fill="#E31930"/>
</g>
<defs>
<clipPath id="clip0_5401_1310">
<rect width="236" height="53.7236" fill="white"/>
</clipPath>
</defs>
</svg>
