<svg width="16" height="16" viewBox="0 0 16 16" fill="none" xmlns="http://www.w3.org/2000/svg">
<path d="M4.0107 2.17985C1.62156 3.0214 0.373499 5.98821 1.31489 8.58417C1.57163 9.30448 1.94962 9.89642 2.47737 10.417C3.19768 11.1231 3.9893 11.4939 5.02341 11.5938L5.50837 11.6437V12.5851C5.50837 13.3767 5.52976 13.555 5.64387 13.7404C5.82216 14.04 6.15022 14.2183 6.51394 14.2183C6.85627 14.2183 6.87766 14.204 8.99579 12.5423L10.1226 11.6508L10.7787 11.608C12.2479 11.5082 13.3533 10.8806 14.1378 9.70386C15.393 7.81394 15.2646 5.17519 13.8383 3.45644C13.3961 2.92156 12.6544 2.4152 11.9983 2.17985L11.499 2.00156H8.00448H4.50992L4.0107 2.17985ZM11.2066 3.00001C11.82 3.09985 12.362 3.39225 12.8612 3.89148C13.3676 4.3907 13.6956 4.98263 13.8953 5.76713C14.2519 7.15782 13.8454 8.69828 12.8612 9.6682C12.1766 10.3528 11.4634 10.631 10.4008 10.631C10.144 10.631 9.85161 10.6738 9.75176 10.7237C9.65192 10.7736 8.89595 11.3513 8.06153 12.0074C7.23425 12.6635 6.53534 13.1984 6.51394 13.1984C6.49255 13.1984 6.47115 12.7705 6.47115 12.2499C6.47115 11.444 6.44976 11.2728 6.32852 11.0803C6.15022 10.7879 5.84356 10.631 5.45131 10.631C4.55271 10.631 3.78961 10.3101 3.14775 9.6682C2.16357 8.69828 1.75706 7.15782 2.11365 5.76713C2.31334 4.98263 2.6414 4.3907 3.14775 3.89148C3.62558 3.41365 4.19612 3.09272 4.73814 3.00001C5.23023 2.92156 10.7074 2.91442 11.2066 3.00001Z" fill="#111111"/>
</svg>
