<svg width="42" height="43" viewBox="0 0 42 43" fill="none" xmlns="http://www.w3.org/2000/svg">
<rect y="0.723633" width="42" height="42" rx="21" fill="white" fill-opacity="0.1"/>
<path d="M14.0526 24.8815C14.0526 25.5515 13.7865 26.1941 13.3127 26.6679C12.8389 27.1417 12.1963 27.4078 11.5263 27.4078C10.8563 27.4078 10.2137 27.1417 9.73994 26.6679C9.26616 26.1941 9 25.5515 9 24.8815C9 24.2115 9.26616 23.5689 9.73994 23.0952C10.2137 22.6214 10.8563 22.3552 11.5263 22.3552H14.0526V24.8815ZM15.3158 24.8815C15.3158 24.2115 15.582 23.5689 16.0557 23.0952C16.5295 22.6214 17.1721 22.3552 17.8421 22.3552C18.5121 22.3552 19.1547 22.6214 19.6285 23.0952C20.1023 23.5689 20.3684 24.2115 20.3684 24.8815V31.1973C20.3684 31.8673 20.1023 32.5099 19.6285 32.9837C19.1547 33.4575 18.5121 33.7236 17.8421 33.7236C17.1721 33.7236 16.5295 33.4575 16.0557 32.9837C15.582 32.5099 15.3158 31.8673 15.3158 31.1973V24.8815ZM17.8421 14.7763C17.1721 14.7763 16.5295 14.5101 16.0557 14.0363C15.582 13.5625 15.3158 12.92 15.3158 12.2499C15.3158 11.5799 15.582 10.9373 16.0557 10.4636C16.5295 9.9898 17.1721 9.72363 17.8421 9.72363C18.5121 9.72363 19.1547 9.9898 19.6285 10.4636C20.1023 10.9373 20.3684 11.5799 20.3684 12.2499V14.7763H17.8421ZM17.8421 16.0394C18.5121 16.0394 19.1547 16.3056 19.6285 16.7794C20.1023 17.2531 20.3684 17.8957 20.3684 18.5657C20.3684 19.2358 20.1023 19.8783 19.6285 20.3521C19.1547 20.8259 18.5121 21.0921 17.8421 21.0921H11.5263C10.8563 21.0921 10.2137 20.8259 9.73994 20.3521C9.26616 19.8783 9 19.2358 9 18.5657C9 17.8957 9.26616 17.2531 9.73994 16.7794C10.2137 16.3056 10.8563 16.0394 11.5263 16.0394H17.8421ZM27.9474 18.5657C27.9474 17.8957 28.2135 17.2531 28.6873 16.7794C29.1611 16.3056 29.8037 16.0394 30.4737 16.0394C31.1437 16.0394 31.7863 16.3056 32.2601 16.7794C32.7338 17.2531 33 17.8957 33 18.5657C33 19.2358 32.7338 19.8783 32.2601 20.3521C31.7863 20.8259 31.1437 21.0921 30.4737 21.0921H27.9474V18.5657ZM26.6842 18.5657C26.6842 19.2358 26.418 19.8783 25.9443 20.3521C25.4705 20.8259 24.8279 21.0921 24.1579 21.0921C23.4879 21.0921 22.8453 20.8259 22.3715 20.3521C21.8977 19.8783 21.6316 19.2358 21.6316 18.5657V12.2499C21.6316 11.5799 21.8977 10.9373 22.3715 10.4636C22.8453 9.9898 23.4879 9.72363 24.1579 9.72363C24.8279 9.72363 25.4705 9.9898 25.9443 10.4636C26.418 10.9373 26.6842 11.5799 26.6842 12.2499V18.5657ZM24.1579 28.671C24.8279 28.671 25.4705 28.9372 25.9443 29.4109C26.418 29.8847 26.6842 30.5273 26.6842 31.1973C26.6842 31.8673 26.418 32.5099 25.9443 32.9837C25.4705 33.4575 24.8279 33.7236 24.1579 33.7236C23.4879 33.7236 22.8453 33.4575 22.3715 32.9837C21.8977 32.5099 21.6316 31.8673 21.6316 31.1973V28.671H24.1579ZM24.1579 27.4078C23.4879 27.4078 22.8453 27.1417 22.3715 26.6679C21.8977 26.1941 21.6316 25.5515 21.6316 24.8815C21.6316 24.2115 21.8977 23.5689 22.3715 23.0952C22.8453 22.6214 23.4879 22.3552 24.1579 22.3552H30.4737C31.1437 22.3552 31.7863 22.6214 32.2601 23.0952C32.7338 23.5689 33 24.2115 33 24.8815C33 25.5515 32.7338 26.1941 32.2601 26.6679C31.7863 27.1417 31.1437 27.4078 30.4737 27.4078H24.1579Z" fill="white"/>
</svg>
