<svg width="42" height="43" viewBox="0 0 42 43" fill="none" xmlns="http://www.w3.org/2000/svg">
<rect y="0.723633" width="42" height="42" rx="21" fill="white" fill-opacity="0.1"/>
<path d="M33 14.0181C32.1166 14.4196 31.1644 14.6835 30.1778 14.8097C31.1874 14.2016 31.9675 13.238 32.3346 12.0793C31.3824 12.6529 30.327 13.0544 29.2141 13.2839C28.3078 12.2972 27.0344 11.7236 25.5889 11.7236C22.8929 11.7236 20.6902 13.9263 20.6902 16.6452C20.6902 17.0353 20.7361 17.4139 20.8164 17.7695C16.7323 17.563 13.0956 15.6013 10.675 12.6299C10.2505 13.3527 10.0096 14.2016 10.0096 15.0965C10.0096 16.8059 10.87 18.3202 12.2008 19.1806C11.3862 19.1806 10.6291 18.9512 9.96367 18.607V18.6414C9.96367 21.0276 11.6616 23.0238 13.9101 23.4712C13.1882 23.6688 12.4303 23.6963 11.696 23.5515C12.0076 24.5295 12.6178 25.3853 13.4409 25.9985C14.264 26.6117 15.2586 26.9516 16.2849 26.9703C14.5453 28.3475 12.3889 29.0919 10.1702 29.0812C9.78011 29.0812 9.39006 29.0582 9 29.0124C11.1797 30.412 13.7725 31.2265 16.5488 31.2265C25.5889 31.2265 30.5564 23.7236 30.5564 17.2189C30.5564 17.0009 30.5564 16.7944 30.5449 16.5764C31.5086 15.8881 32.3346 15.0162 33 14.0181Z" fill="white"/>
</svg>
