<svg width="32" height="31" viewBox="0 0 32 31" fill="none" xmlns="http://www.w3.org/2000/svg">
<path fill-rule="evenodd" clip-rule="evenodd" d="M26.3615 10.279C26.3706 10.5012 26.3736 10.7233 26.3736 10.9455C26.3736 17.6824 21.4004 25.4598 12.3063 25.4598C9.51278 25.4598 6.91518 24.6113 4.72656 23.167C5.11344 23.2074 5.50635 23.2378 5.90528 23.2378C8.22152 23.2378 10.3549 22.4195 12.0471 21.0458C9.88358 21.0155 8.05673 19.5308 7.42667 17.5107C7.72914 17.5713 8.04063 17.6017 8.35917 17.6017C8.80835 17.6017 9.24447 17.5412 9.66249 17.42C7.39851 16.9553 5.69326 14.8949 5.69326 12.4204C5.69326 12.39 5.69326 12.3799 5.69326 12.3597C6.36049 12.7334 7.12419 12.9656 7.93512 12.9959C6.60668 12.0768 5.73343 10.5113 5.73343 8.7437C5.73343 7.81447 5.97661 6.9357 6.40469 6.17817C8.84251 9.26887 12.4872 11.2991 16.5962 11.5112C16.5117 11.1375 16.4685 10.7436 16.4685 10.3497C16.4685 7.53175 18.6822 5.24902 21.4135 5.24902C22.8354 5.24902 24.1196 5.86523 25.021 6.85506C26.1495 6.63286 27.2066 6.20867 28.1632 5.62285C27.7925 6.81469 27.0096 7.81442 25.9867 8.44064C26.9875 8.31943 27.9422 8.04693 28.8275 7.64292C28.1633 8.66305 27.3272 9.56184 26.3615 10.279Z" fill="#1EA1F2"/>
</svg>
